<?xml version="1.0" encoding="UTF-8" standalone="no"?>
<!-- Created with Inkscape (http://www.inkscape.org/) -->

<svg
   width="146.14714mm"
   height="227.38127mm"
   viewBox="0 0 146.14714 227.38127"
   version="1.1"
   id="svg1"
   xml:space="preserve"
   inkscape:version="1.3.2 (091e20e, 2023-11-25, custom)"
   sodipodi:docname="hardware-db_pictogram.svg"
   xmlns:inkscape="http://www.inkscape.org/namespaces/inkscape"
   xmlns:sodipodi="http://sodipodi.sourceforge.net/DTD/sodipodi-0.dtd"
   xmlns="http://www.w3.org/2000/svg"
   xmlns:svg="http://www.w3.org/2000/svg"><sodipodi:namedview
     id="namedview1"
     pagecolor="#505050"
     bordercolor="#eeeeee"
     borderopacity="1"
     inkscape:showpageshadow="0"
     inkscape:pageopacity="0"
     inkscape:pagecheckerboard="0"
     inkscape:deskcolor="#d1d1d1"
     inkscape:document-units="mm"
     inkscape:zoom="0.61290685"
     inkscape:cx="605.31221"
     inkscape:cy="365.47153"
     inkscape:window-width="1536"
     inkscape:window-height="1082"
     inkscape:window-x="472"
     inkscape:window-y="0"
     inkscape:window-maximized="0"
     inkscape:current-layer="layer1" /><defs
     id="defs1" /><g
     inkscape:label="Layer 1"
     inkscape:groupmode="layer"
     id="layer1"
     transform="translate(55.304935,-51.86595)"><path
       style="fill:#000000"
       d="m -3.9757271,279.13016 c -11.6756939,-0.45156 -24.4303349,-3.07144 -32.8233119,-6.74209 -6.425962,-2.81039 -10.040157,-5.10809 -13.483898,-8.57231 -1.929071,-1.94054 -2.756962,-3.00718 -3.536617,-4.55651 -1.317205,-2.61756 -1.517111,-4.53762 -1.423653,-13.67393 l 0.07061,-6.90238 2.248959,1.98142 c 9.756483,8.59585 25.507596,13.95334 45.5083319,15.47894 5.174831,0.39472 16.840001,0.1748 21.6958311,-0.40902 17.73034,-2.13175 31.47576,-7.15587 40.12073,-14.66462 3.4886,-3.03009 3.10808,-3.8131 2.88027,5.92682 -0.138,5.89994 -0.31196,8.8897 -0.57671,9.91174 -0.90229,3.48318 -4.48521,7.74952 -9.10192,10.83809 -9.25954,6.19461 -25.13428,10.68929 -39.8046601,11.27006 -1.89177,0.0749 -4.27302,0.17142 -5.29167,0.21451 -1.01864,0.0431 -3.93567,-0.002 -6.482288,-0.10072 z M -33.418393,264.0118 c 1.396872,-1.15931 1.393445,-3.34287 -0.0066,-4.19652 -1.329208,-0.81047 -2.367625,-0.68028 -3.331672,0.41771 -1.259262,1.43422 -1.046557,2.83519 0.584789,3.85168 0.883338,0.5504 2.039328,0.51981 2.753468,-0.0729 z m -11.104729,-6.18374 c 0.894199,-1.01614 0.816184,-2.58349 -0.178085,-3.57775 -0.869673,-0.86968 -1.758342,-0.98281 -2.936064,-0.37379 -0.945559,0.48897 -1.319462,1.14314 -1.311738,2.29497 0.01528,2.27878 2.92121,3.36644 4.425887,1.65657 z m 38.5630199,-6.91204 c -17.9960589,-1.14619 -33.6944789,-6.17218 -42.7983339,-13.70226 -3.427665,-2.83513 -5.829899,-6.67704 -6.300772,-10.07687 -0.140016,-1.01096 -0.222809,-5.15638 -0.183984,-9.21205 l 0.07059,-7.37394 2.38125,2.04703 c 5.431604,4.66925 11.514971,7.91044 20.072283,10.69444 8.751138,2.84705 17.337392,4.29317 28.2696509,4.76125 C 20.35584,229.11569 42.61037,223.28157 54.89406,212.49649 l 2.11667,-1.85844 0.24167,0.79921 c 0.14614,0.4833 0.14344,4.00822 -0.007,8.91786 l -0.2485,8.11866 -1.1394,2.34443 c -0.95584,1.96672 -1.5515,2.75808 -3.69734,4.91203 -3.03246,3.04392 -5.4884,4.71964 -10.49543,7.16118 -7.08956,3.45701 -15.07614,5.73113 -25.00865,7.12101 -6.01033,0.84104 -16.81855007,1.27286 -22.6163531,0.90359 z M -33.147927,234.81151 c 0.87634,-0.99578 0.997179,-1.82327 0.412796,-2.82681 -1.005762,-1.72717 -2.916261,-1.92327 -4.174068,-0.42846 -2.113732,2.51203 1.592477,5.71964 3.761272,3.25527 z m -11.55328,-5.65591 c 1.376157,-1.37616 0.879282,-3.65116 -0.927684,-4.24752 -1.020874,-0.33691 -1.611877,-0.16779 -2.598397,0.74358 -1.596069,1.47447 -0.425777,4.27733 1.785937,4.27733 0.715732,0 1.167559,-0.20081 1.740144,-0.77339 z m 36.4921469,-6.54379 c -16.0886319,-1.54177 -28.5806839,-5.29326 -37.5708319,-11.28289 -3.031242,-2.01955 -6.80212,-5.96663 -8.028192,-8.40332 -1.324555,-2.63242 -1.47754,-3.98423 -1.488151,-13.14966 l -0.0087,-7.47701 2.315104,2.00759 c 8.909689,7.72622 21.745005,12.60679 39.35677,14.96524 3.9879769,0.53405 5.6227829,0.60337 14.41978893,0.61144 10.66375007,0.01 13.62936007,-0.21436 21.16667007,-1.59976 14.53487,-2.67159 25.65672,-7.40745 33.20521,-14.13931 l 2.11666,-1.88768 0.075,2.94935 c 0.12806,5.03942 -0.36414,14.82356 -0.80929,16.0872 -1.03554,2.93955 -4.53023,7.07676 -8.12921,9.62382 -8.19964,5.80304 -21.15242,9.90257 -36.18418,11.45221 -3.6570301,0.37701 -17.3397831,0.53956 -20.4366511,0.24278 z M -33.423596,206.51255 c 0.899373,-0.62995 1.242454,-2.01383 0.776008,-3.1302 -0.451089,-1.0796 -1.10611,-1.49919 -2.340414,-1.49919 -1.778826,0 -2.896077,1.57759 -2.33063,3.29091 0.385901,1.16929 1.165171,1.73617 2.386656,1.73617 0.517325,0 1.196096,-0.17896 1.50838,-0.39769 z m -11.387721,-5.84212 c 0.896444,-0.55826 1.270928,-2.01559 0.7679,-2.98834 -0.920571,-1.78019 -2.816483,-2.16796 -4.138078,-0.84637 -0.590478,0.59048 -0.771407,1.01288 -0.764983,1.78594 0.0183,2.20142 2.17455,3.26974 4.135161,2.04877 z m 37.6605909,-6.11319 c -15.7071809,-1.18358 -29.6453069,-5.1908 -38.5178669,-11.07392 -3.093057,-2.05092 -6.929133,-6.13462 -8.224287,-8.75518 -1.014788,-2.05329 -1.015137,-2.05514 -1.015137,-5.38873 v -3.33473 l 1.030426,-2.10295 c 0.856304,-1.74759 1.526947,-2.59794 3.96875,-5.03223 3.335593,-3.32533 5.042865,-4.52663 9.552907,-6.72177 8.70067,-4.23481 19.316703,-6.88812 31.7499989,-7.93542 4.158253,-0.35026 14.815386,-0.34688 19.1017361,0.006 15.13097,1.2459 28.53386,5.16829 37.00345,10.82917 3.1964,2.1364 6.9254,6.03038 8.11215,8.47104 1.16322,2.39227 1.66191,4.76638 1.44238,6.86673 -1.14679,10.97184 -17.09331,20.15826 -40.65659,23.42132 -5.43165,0.75218 -18.1478701,1.15752 -23.5479171,0.75061 z M 31.803301,146.03117 c -1.34273,-0.50692 -1.1049,-1.12391 3.35237,-8.69679 l 2.40818,-4.09149 v -4.64368 c 0,-4.18269 0.0541,-4.74459 0.54484,-5.66021 0.45745,-0.8535 -0.35943,-0.25651 -5.09323,3.72223 -7.57371,6.36569 -7.16898,6.08572 -8.00545,5.53763 -1.40263,-0.91903 -1.05939,-1.38817 4.48405,-6.12891 2.83766,-2.42675 5.15938,-4.44651 5.15938,-4.48834 0,-0.0418 -0.44649,0.0276 -0.99219,0.15435 -3.09296,0.71826 -7.49802,-0.0617 -9.45392,-1.67394 -1.13092,-0.9322 -1.45945,-1.63985 -1.68955,-3.63927 l -0.16747,-1.45521 -1.4552,-0.1615 c -4.07423,-0.45214 -6.74875,-3.35059 -7.84432,-8.5011 -0.54437,-2.55918 -0.36006,-6.06679 0.37025,-7.046673 0.98778,-1.32531 2.10163,-1.756878 4.43136,-1.716955 4.08868,0.07006 9.25647,2.147065 17.4625,7.018408 4.48257,2.66099 6.72282,3.92553 6.95443,3.92553 0.0775,0 -0.57703,-0.74765 -1.4545,-1.66145 -1.80931,-1.88421 -2.96114,-3.59299 -4.53864,-6.7332 -1.48238,-2.950894 -1.41348,-4.040768 0.25546,-4.040768 0.63368,0 0.85543,0.275464 1.97019,2.447396 1.51311,2.948052 2.67157,4.742952 4.13209,6.402192 l 1.09318,1.24192 1.43156,-1.40774 c 0.78736,-0.77425 1.62542,-1.81274 1.86235,-2.30775 0.23694,-0.49501 0.94444,-1.26207 1.57223,-1.70457 1.29737,-0.914475 1.42492,-1.231865 0.49505,-1.231865 -0.4092,0 -1.32151,0.582515 -2.4863,1.587495 -1.01195,0.87313 -2.00695,1.5875 -2.21111,1.5875 -0.49471,0 -1.0062,-0.53515 -1.0062,-1.05274 0,-0.46191 2.97181,-3.479033 3.88521,-3.944448 0.8285,-0.422155 2.88773,-0.362994 3.80084,0.109196 0.69972,0.361837 0.86151,0.361837 1.56123,0 1.1733,-0.60674 3.22168,-0.523395 4.14464,0.168639 1.86771,1.400402 3.27683,2.986723 3.27683,3.688913 0,0.63418 -0.40506,1.03044 -1.0533,1.03044 -0.11894,0 -1.00455,-0.71437 -1.968,-1.5875 -1.31672,-1.193256 -1.94756,-1.587495 -2.54023,-1.587495 -0.43366,0 -0.78847,0.119063 -0.78847,0.264583 0,0.145521 0.11872,0.264582 0.26382,0.264582 0.44469,0 2.3914,1.89594 2.83209,2.75824 0.2287,0.4475 0.9056,1.27193 1.50422,1.83208 1.01044,0.94548 1.13433,0.99286 1.72941,0.66145 0.98539,-0.54877 3.16054,-3.58434 4.88951,-6.823653 1.28653,-2.410368 1.66789,-2.926032 2.16392,-2.926032 0.71838,0 1.43369,0.648307 1.43369,1.299396 0,0.635353 -2.28316,5.075629 -3.62758,7.054889 -0.60051,0.88408 -1.77133,2.22842 -2.60181,2.98744 -2.90229,2.65253 -1.26082,2.05633 5.56068,-2.01968 5.7994,-3.46528 9.27024,-5.189391 12.70726,-6.312229 4.73529,-1.546973 8.26458,-1.324442 9.52594,0.600634 0.67522,1.030515 0.92089,3.263465 0.6486,5.895285 -0.58321,5.6372 -3.46142,9.20396 -7.8717,9.75486 l -1.50711,0.18826 -0.19588,1.56813 c -0.28227,2.25969 -1.10418,3.35903 -3.30425,4.41952 -1.608,0.77509 -2.10599,0.8795 -4.81432,1.00932 l -3.0208,0.1448 4.07913,3.47253 c 2.24353,1.9099 4.37381,3.79155 4.73396,4.18145 0.61467,0.66543 0.63034,0.75255 0.25549,1.42038 -0.85449,1.52239 -0.62364,1.66451 -9.41623,-5.79687 -3.36857,-2.85857 -6.2856,-5.29382 -6.48229,-5.41167 -0.1967,-0.11786 0.32698,0.57054 1.16373,1.52978 l 1.52135,1.74405 v 4.83451 4.8345 l 3.00789,5.179 c 3.70805,6.38456 3.60669,6.18722 3.60669,7.02222 0,0.72441 -0.78304,1.22194 -1.59074,1.01072 -0.50139,-0.13111 -0.33663,0.12194 -4.41327,-6.77831 l -3.2564,-5.51188 -0.0115,-4.80687 -0.0115,-4.80688 -1.55913,-1.7146 c -0.85752,-0.94303 -1.62731,-1.64642 -1.71064,-1.56309 -0.0833,0.0833 0.20359,0.8549 0.6376,1.7146 0.4768,0.94445 0.85481,2.1914 0.95511,3.15059 l 0.16599,1.5875 h -9.8491 -9.8491 l 0.15134,-1.80534 c 0.10508,-1.25362 0.35769,-2.15747 0.82656,-2.95753 1.13825,-1.94229 0.734,-1.94215 -1.0545,3.7e-4 l -1.70523,1.85209 -0.002,4.83207 -0.002,4.83207 -3.47814,5.82873 c -1.91297,3.20581 -3.66915,5.92863 -3.9026,6.05073 -0.23346,0.12209 -0.695,0.11986 -1.02565,-0.005 z m 3.24701,-27.60916 c 1.01865,-0.38455 3.01295,-1.35562 4.43177,-2.15794 l 2.57969,-1.45875 -0.002,-1.63868 -0.002,-1.63869 -1.91646,-1.03301 c -1.05405,-0.56816 -3.77027,-2.13378 -6.03603,-3.47916 -7.53711,-4.47543 -12.75103,-6.67965 -16.09727,-6.80522 -2.29873,-0.0863 -2.55531,0.244 -2.47351,3.18389 0.13076,4.69987 1.62957,7.50284 4.53973,8.48991 0.49466,0.16778 1.81953,0.30505 2.94417,0.30505 2.66275,0 2.85382,0.2001 2.39506,2.50814 -0.38076,1.9156 -0.27785,2.44989 0.63749,3.30982 1.56928,1.47425 5.68922,1.66409 8.9989,0.41464 z m 41.56875,0.0971 c 1.75561,-0.87011 2.07931,-1.59603 1.64636,-3.69215 -0.48025,-2.32514 -0.32928,-2.47194 2.72932,-2.65384 1.96384,-0.1168 2.7472,-0.28642 3.66573,-0.79375 2.13175,-1.17743 3.4388,-4.2907 3.4388,-8.19086 0,-2.86714 -0.15946,-3.02134 -2.93599,-2.83917 -3.55618,0.23333 -7.69402,1.98203 -15.18916,6.41917 -2.03795,1.20646 -4.77639,2.77283 -6.08542,3.48082 l -2.38005,1.28725 -0.0732,1.58316 c -0.0713,1.54121 -0.0502,1.59635 0.79375,2.08055 3.0768,1.76519 6.36969,3.37492 7.616,3.72309 2.11471,0.59076 5.12923,0.41085 6.77388,-0.40427 z m -28.40388,26.18241 c -0.77817,-0.29909 -2.0343,-1.12457 -2.86103,-1.88016 -1.64755,-1.50576 -2.977,-3.74268 -2.42985,-4.08844 0.44217,-0.27942 12.89156,-0.45683 15.69135,-0.22361 2.65531,0.22119 2.73531,0.38526 1.23497,2.5328 -1.17238,1.67811 -3.16191,3.25993 -4.80525,3.82051 -1.70548,0.58177 -5.1061,0.50157 -6.83019,-0.1611 z m -6.15341,-11.45246 v -2.77102 l 1.25677,-0.21335 c 1.89709,-0.32204 16.72549,-0.20075 17.59479,0.14392 0.72637,0.288 0.72761,0.29302 0.72761,2.94824 v 2.65975 l -1.78594,-0.20581 c -2.28199,-0.26297 -14.57392,-0.25685 -16.40417,0.008 l -1.38906,0.20114 z M -41.943434,98.195636 c -1.74829,-0.106668 -2.929457,-0.316627 -3.481917,-0.618931 -1.115377,-0.610329 -2.326737,-2.117989 -2.698371,-3.358394 -0.427771,-1.42777 -0.423184,-29.055745 0.0051,-30.485099 0.366524,-1.223349 1.803381,-2.974144 2.960637,-3.607505 0.768282,-0.420477 2.6977,-0.462261 24.714207,-0.535227 15.7745689,-0.05228 24.3872479,0.01447 25.3726479,0.196626 1.72145,0.318227 2.97346,1.171338 4.00429,2.728503 l 0.71719,1.08338 0.0808,14.23411 c 0.0527,9.272561 -0.0172,14.764577 -0.20049,15.755959 -0.33434,1.808615 -1.27476,3.100587 -2.94671,4.048274 l -1.16697,0.661458 -22.3572909,0.02914 c -12.29651,0.01603 -23.547916,-0.04351 -25.003124,-0.132292 z m 25.313657,-5.968812 c 2.49747,-0.529321 4.567058,-1.619565 6.501803,-3.425102 7.6184149,-7.109631 4.7968919,-19.428956 -5.224836,-22.81269 -2.263635,-0.764293 -6.222401,-0.658851 -8.499313,0.226379 -3.39972,1.321762 -5.793437,3.349656 -7.289798,6.175725 -1.19643,2.259613 -1.673388,4.138804 -1.673388,6.593071 0,3.798686 1.358655,7.003969 4.074118,9.611491 1.86617,1.791988 4.280589,3.11338 6.61794,3.621944 2.117131,0.460648 3.353592,0.462715 5.493474,0.0092 z m -5.261935,-3.951984 c -1.769296,-0.58022 -3.358068,-1.62971 -4.661037,-3.078925 -3.654781,-4.064996 -2.968505,-10.670245 1.445256,-13.910243 5.346191,-3.924465 12.709158,-1.627137 14.921987,4.655827 0.6172239,1.752506 0.5560939,4.575011 -0.139159,6.425295 -0.799046,2.126507 -2.935194,4.388107 -5.034589,5.330259 -1.957674,0.878552 -4.838365,1.133345 -6.532458,0.577787 z m 9.780048,-8.029337 c 0.68646,-0.618629 0.607859,-2.791246 -0.16069,-4.441661 -1.165369,-2.502563 -4.284407,-4.624843 -6.796963,-4.624843 -1.101898,0 -2.104326,0.934901 -2.104326,1.962571 0,0.997528 0.575788,1.624429 1.719792,1.872461 2.488247,0.539476 3.648206,1.641396 3.992168,3.792417 0.313051,1.95771 1.979942,2.67375 3.350019,1.439055 z m -25.321827,-9.715936 c 0.783893,-0.783893 0.832138,-1.700509 0.129216,-2.455007 -0.755255,-0.81067 -1.518978,-0.975932 -2.261555,-0.489377 -1.308539,0.857387 -1.454738,2.397193 -0.304126,3.203114 0.816811,0.572116 1.699335,0.4784 2.436465,-0.25873 z m 8.520786,-13.027023 c -0.545703,-0.0626 -0.992188,-0.178745 -0.992188,-0.258096 0,-0.323828 0.835141,-3.447364 1.105141,-4.133372 0.159693,-0.405744 0.504319,-0.852228 0.765836,-0.992188 0.630157,-0.33725 16.794556,-0.33725 17.424713,0 0.261516,0.13996 0.606143,0.586444 0.7658359,0.992188 0.505993,1.285611 1.141515,4.096815 0.965923,4.272713 -0.188677,0.189008 -18.4778809,0.297412 -20.0352609,0.118755 z"
       id="path1" /></g></svg>
