<?xml version="1.0" encoding="UTF-8" standalone="no"?><!DOCTYPE svg PUBLIC "-//W3C//DTD SVG 1.1//EN" "http://www.w3.org/Graphics/SVG/1.1/DTD/svg11.dtd"><svg width="100%" height="100%" viewBox="0 0 2423 1551" version="1.1" xmlns="http://www.w3.org/2000/svg" xmlns:xlink="http://www.w3.org/1999/xlink" xml:space="preserve" xmlns:serif="http://www.serif.com/" style="fill-rule:evenodd;clip-rule:evenodd;stroke-linecap:round;stroke-linejoin:round;stroke-miterlimit:1.5;"><rect id="Artboard1" x="0" y="0" width="2422.18" height="1550.5" style="fill:none;"/><g id="Artboard11" serif:id="Artboard1"><g><rect x="288.951" y="938.824" width="1871.77" height="396.85" style="fill:#2fb44a;"/><g transform="matrix(1,0,0,1,-400.188,-143.036)"><text x="834.933px" y="1381.22px" style="font-family:'CenturyGothic', 'Century Gothic', sans-serif;font-size:266.667px;fill:#fff;">I<tspan x="975.22px 1217.85px 1401.37px 1654.67px 1907.2px " y="1381.22px 1381.22px 1381.22px 1381.22px 1381.22px ">nsect</tspan></text><g transform="matrix(266.667,0,0,266.667,2415.12,1381.22)"></g><text x="2077.56px" y="1381.22px" style="font-family:'CenturyGothic', 'Century Gothic', sans-serif;font-size:266.667px;fill:#c9da2b;">A<tspan x="2354.83px " y="1381.22px ">I</tspan></text></g></g><g><g><path d="M1418.5,458.084l-475.996,-0c-13.156,-0 -25.774,-5.227 -35.077,-14.53c-28.742,-28.742 -90.105,-90.105 -90.105,-90.105" style="fill:none;stroke:#c9da2b;stroke-width:12.5px;"/><path d="M1418.5,524.239l-823.148,-0c-7.446,-0 -14.796,-1.677 -21.506,-4.905c-31.839,-15.317 -127.314,-61.25 -127.314,-61.25" style="fill:none;stroke:#c9da2b;stroke-width:12.5px;"/><path d="M1418.5,590.393l-940.867,0c-7.167,0 -14.25,1.554 -20.759,4.553c-32.451,14.952 -133.694,61.602 -133.694,61.602" style="fill:none;stroke:#c9da2b;stroke-width:12.5px;"/><path d="M1418.5,656.548l-733.352,0" style="fill:none;stroke:#c9da2b;stroke-width:12.5px;"/><path d="M1422.45,722.703l-531.061,0c-13.157,0 -25.774,5.227 -35.077,14.53c-24.409,24.408 -71.003,71.003 -71.003,71.003" style="fill:none;stroke:#c9da2b;stroke-width:12.5px;"/></g><g><circle cx="817.864" cy="353.449" r="34.233" style="fill:#fff;stroke:#2fb44a;stroke-width:12.5px;"/><circle cx="443.481" cy="458.084" r="34.233" style="fill:#fff;stroke:#2fb44a;stroke-width:12.5px;"/><circle cx="323.184" cy="656.548" r="34.233" style="fill:#fff;stroke:#2fb44a;stroke-width:12.5px;"/><circle cx="679.375" cy="656.548" r="34.233" style="fill:#fff;stroke:#2fb44a;stroke-width:12.5px;"/><circle cx="783.631" cy="808.236" r="34.233" style="fill:#fff;stroke:#2fb44a;stroke-width:12.5px;"/></g></g><g><g><path d="M1031.17,458.084l475.996,-0c13.156,-0 25.774,-5.227 35.077,-14.53c28.742,-28.742 90.105,-90.105 90.105,-90.105" style="fill:none;stroke:#c9da2b;stroke-width:12.5px;"/><path d="M1031.17,524.239l823.148,-0c7.446,-0 14.797,-1.677 21.506,-4.905c31.839,-15.317 127.314,-61.25 127.314,-61.25" style="fill:none;stroke:#c9da2b;stroke-width:12.5px;"/><path d="M1031.17,590.393l940.867,0c7.168,0 14.25,1.554 20.76,4.553c32.45,14.952 133.693,61.602 133.693,61.602" style="fill:none;stroke:#c9da2b;stroke-width:12.5px;"/><path d="M1031.17,656.548l733.352,0" style="fill:none;stroke:#c9da2b;stroke-width:12.5px;"/><path d="M1027.22,722.703l531.062,0c13.156,0 25.774,5.227 35.077,14.53c24.408,24.408 71.003,71.003 71.003,71.003" style="fill:none;stroke:#c9da2b;stroke-width:12.5px;"/></g><g><circle cx="1637.7" cy="353.449" r="34.233" style="fill:#fff;stroke:#2fb44a;stroke-width:12.5px;"/><circle cx="2007.44" cy="455.222" r="34.233" style="fill:#fff;stroke:#2fb44a;stroke-width:12.5px;"/><circle cx="2126.49" cy="653.686" r="34.233" style="fill:#fff;stroke:#2fb44a;stroke-width:12.5px;"/><circle cx="1764.03" cy="655.997" r="34.233" style="fill:#fff;stroke:#2fb44a;stroke-width:12.5px;"/><circle cx="1664.64" cy="808.236" r="34.233" style="fill:#fff;stroke:#2fb44a;stroke-width:12.5px;"/></g></g><circle cx="1224.84" cy="589.842" r="264.62" style="fill:#2fb44a;"/><path d="M1370.52,558.049l38.884,0l-0,-11.907l-44.469,-0l-29.769,35.722l-24.333,0c-17.016,-16.837 -30.959,-32.561 -32.257,-45.665l3.006,-6.514c1.804,-3.917 2.763,-8.258 2.781,-12.568l41.277,-14.218l6.085,-60.907l33.859,-28.209l-7.627,-9.145l-37.586,31.329l-5.822,58.168l-32.514,11.199c-1.197,-2.869 -2.911,-5.435 -4.882,-7.781c4.239,-1.834 7.222,-6.049 7.222,-10.949c-0,-16.415 -13.355,-29.769 -29.769,-29.769l-5.954,-0c-0.28,-0 -0.542,0.065 -0.821,0.083c-0.822,-3.221 -2.305,-6.144 -4.287,-8.692l4.93,-19.713l-11.551,-2.894l-3.739,14.944c-2.602,-0.982 -5.4,-1.589 -8.347,-1.589c-2.947,-0 -5.745,0.607 -8.353,1.589l-3.739,-14.944l-11.544,2.894l4.929,19.713c-1.988,2.548 -3.465,5.471 -4.286,8.692c-0.28,-0.018 -0.542,-0.083 -0.822,-0.083l-5.954,-0c-16.414,-0 -29.769,13.354 -29.769,29.769c0,4.9 2.983,9.115 7.222,10.943c-1.97,2.346 -3.685,4.912 -4.882,7.781l-32.513,-11.199l-5.823,-58.168l-37.586,-31.329l-7.633,9.145l33.859,28.209l6.085,60.907l41.277,14.218c0.024,4.31 0.977,8.645 2.781,12.568l3.006,6.514c-1.298,13.098 -15.241,28.822 -32.257,45.665l-24.333,0l-29.769,-35.722l-44.463,-0l0,11.907l38.884,0l29.769,35.723l17.677,-0c-29.305,28.28 -62.515,60.329 -62.515,95.266c0,49.208 22.666,59.538 41.677,59.538c7.906,-0 19.766,-4.489 32.454,-12.342l2.911,11.651l-10.925,21.844l10.651,5.329l12.89,-25.786l-5.043,-20.183c10.146,-7.555 20.279,-17.01 28.894,-27.864c3.894,10.294 8.675,19.029 14.283,26.042c7.805,9.758 19.808,15.355 32.996,15.355c13.116,-0 25.119,-5.597 32.924,-15.355c5.603,-7.007 10.372,-15.759 14.265,-26.059c8.616,10.859 18.755,20.32 28.912,27.881l-5.043,20.183l12.89,25.786l10.651,-5.329l-10.925,-21.844l2.912,-11.651c12.687,7.853 24.547,12.342 32.454,12.342c19.01,-0 41.676,-10.33 41.676,-59.538c-0,-34.937 -33.21,-66.986 -62.515,-95.26l17.677,-0l29.769,-35.723Zm-174.856,-59.538l-0,-0.059c7.573,-0.256 13.908,-5.228 16.247,-12.086l0,0.238l25.864,-0l-0,-0.238c2.334,6.852 8.668,11.83 16.247,12.086l0,0.059c10.175,0 18.457,8.282 18.457,18.457c0,2.65 -0.589,5.323 -1.697,7.734l-25.994,56.317c-3.584,7.746 -11.413,12.753 -19.951,12.753c-8.538,-0 -16.367,-5.007 -19.939,-12.759l-25.994,-56.311c-1.108,-2.411 -1.697,-5.09 -1.697,-7.734c-0,-10.175 8.282,-18.457 18.457,-18.457Zm52.988,142.891l-47.63,-0c-0.375,-18.975 -1.762,-40.861 -3.019,-49.071c6.329,8.246 16.189,13.348 26.834,13.348c10.645,0 20.505,-5.102 26.834,-13.348c-1.262,8.21 -2.644,30.096 -3.019,49.071Zm-47.63,-0l47.63,-0c0,8.168 1.387,16.135 3.781,23.815l-55.192,-0c2.394,-7.68 3.781,-15.647 3.781,-23.815Zm53.584,-172.659c9.847,-0 17.861,8.013 17.867,17.861l-17.867,-0c-3.287,-0 -5.954,-2.673 -5.954,-5.954l0,-11.907l5.954,-0Zm-17.861,-5.954l-0,11.907l-23.815,0l-0,-11.907c-0,-6.567 5.34,-11.908 11.907,-11.908c6.567,0 11.908,5.341 11.908,11.908Zm-41.677,5.954l5.954,-0l0,11.907c0,3.281 -2.667,5.954 -5.954,5.954l-17.861,-0c-0,-9.848 8.014,-17.861 17.861,-17.861Zm-89.306,267.919c-12.777,0 -29.769,-4.935 -29.769,-47.63c-0,-29.888 31.287,-60.074 58.895,-86.705c17.843,-17.218 34.013,-32.823 42.343,-47.898c-2.62,18.135 8.091,33.865 8.532,36.646c1.565,9.984 3.351,21.296 3.351,50.327c0,51.321 -63.538,95.26 -83.352,95.26Zm119.039,-5.954c-9.335,0 -18.171,-4.072 -23.624,-10.883c-1.697,-2.126 -9.234,-16.373 -10.771,-18.885l68.856,-0c-1.53,2.512 -9.074,16.759 -10.777,18.879c-5.441,6.817 -14.277,10.889 -23.684,10.889Zm34.461,-29.768l-68.856,-0c-1.553,-3.686 -3,-7.597 -4.292,-11.813c2.417,-3.882 9.21,-19.79 11.127,-23.91l55.192,-0c1.911,4.114 8.71,20.022 11.121,23.892c-1.297,4.222 -2.738,8.145 -4.292,11.831Zm114.419,-11.908c0,42.695 -16.992,47.63 -29.768,47.63c-19.815,0 -83.353,-43.939 -83.353,-95.26c-0,-29.031 1.786,-40.343 3.352,-50.327c0.44,-2.787 11.151,-18.511 8.531,-36.646c8.336,15.075 24.5,30.68 42.344,47.898c27.607,26.631 58.894,56.817 58.894,86.705Z" style="fill:#fff;fill-rule:nonzero;"/></g></svg>